<svg xmlns="http://www.w3.org/2000/svg"
    xmlns:xlink="http://www.w3.org/1999/xlink" width="700" zoomAndPan="magnify" viewBox="0 0 375 374.999991" height="500" preserveAspectRatio="xMidYMid meet" version="1.0">
    <defs>
        <g/>
        <clipPath id="e93ebc76f3">
            <path d="M 41 146 L 113 146 L 113 221 L 41 221 Z M 41 146 " clip-rule="nonzero"/>
        </clipPath>
        <clipPath id="50310cc6f2">
            <path d="M 37.5 150.289062 L 113.113281 145.757812 L 117.46875 218.378906 L 41.851562 222.910156 Z M 37.5 150.289062 " clip-rule="nonzero"/>
        </clipPath>
        <clipPath id="6a8020d1d6">
            <path d="M 37.5 150.289062 L 113.113281 145.757812 L 117.46875 218.378906 L 41.851562 222.910156 Z M 37.5 150.289062 " clip-rule="nonzero"/>
        </clipPath>
    </defs>
    <rect x="-37.5" width="450" fill="#ffffff" y="-37.499999" height="449.999989" fill-opacity="1"/>
    <rect x="-37.5" width="450" fill="#000000" y="-37.499999" height="449.999989" fill-opacity="1"/>
    <g clip-path="url(#e93ebc76f3)">
        <g clip-path="url(#50310cc6f2)">
            <g clip-path="url(#6a8020d1d6)">
                <path fill="#c1ff72" d="M 95.261719 203.109375 L 91.378906 199.664062 C 90.636719 199.007812 90.570312 197.878906 91.226562 197.140625 L 95.675781 192.125 C 96.332031 191.382812 96.265625 190.253906 95.523438 189.597656 C 94.785156 188.941406 93.65625 189.011719 93 189.75 L 85.046875 198.714844 C 84.226562 199.640625 82.816406 199.726562 81.890625 198.90625 C 80.96875 198.085938 80.882812 196.675781 81.703125 195.75 L 94.996094 180.765625 C 95.652344 180.023438 95.582031 178.894531 94.84375 178.238281 C 94.101562 177.582031 92.972656 177.652344 92.316406 178.390625 L 63.847656 210.492188 C 63.03125 211.414062 61.617188 211.5 60.695312 210.679688 C 59.769531 209.859375 59.6875 208.449219 60.503906 207.527344 L 83.636719 181.445312 C 84.292969 180.707031 84.222656 179.578125 83.484375 178.921875 C 82.742188 178.265625 81.613281 178.332031 80.957031 179.070312 L 71.9375 189.242188 C 71.28125 189.980469 70.152344 190.050781 69.414062 189.394531 L 68.742188 188.800781 C 68.003906 188.144531 67.9375 187.011719 68.59375 186.273438 L 82.953125 170.082031 C 83.609375 169.34375 83.539062 168.214844 82.800781 167.558594 C 82.058594 166.902344 80.929688 166.96875 80.273438 167.710938 L 46.445312 205.863281 C 45.628906 206.785156 44.214844 206.871094 43.292969 206.050781 C 42.367188 205.234375 42.285156 203.820312 43.101562 202.898438 L 71.59375 170.769531 C 72.253906 170.03125 72.183594 168.902344 71.445312 168.246094 C 70.703125 167.589844 69.574219 167.65625 68.917969 168.398438 L 64.472656 173.414062 C 63.816406 174.152344 62.6875 174.222656 61.949219 173.566406 L 58.0625 170.121094 C 57.070312 169.238281 57.351562 167.621094 58.585938 167.121094 L 110.175781 146.417969 C 111.542969 145.871094 112.949219 147.117188 112.566406 148.542969 L 98.175781 202.234375 C 97.828125 203.519531 96.253906 203.992188 95.261719 203.109375 Z M 65.777344 192.824219 C 64.855469 192.003906 63.441406 192.089844 62.625 193.011719 L 42.308594 215.917969 C 41.488281 216.84375 41.574219 218.253906 42.496094 219.074219 C 43.421875 219.894531 44.832031 219.808594 45.652344 218.882812 L 65.96875 195.976562 C 66.785156 195.054688 66.703125 193.644531 65.777344 192.824219 Z M 79.003906 202.164062 C 78.082031 201.34375 76.667969 201.429688 75.847656 202.351562 L 62.644531 217.242188 C 61.824219 218.164062 61.910156 219.578125 62.832031 220.394531 C 63.753906 221.214844 65.167969 221.128906 65.988281 220.207031 L 79.191406 205.316406 C 80.011719 204.394531 79.925781 202.980469 79.003906 202.164062 Z M 59.402344 212.050781 C 58.503906 211.253906 57.125 211.335938 56.328125 212.234375 C 55.53125 213.136719 55.613281 214.511719 56.511719 215.3125 C 57.414062 216.109375 58.789062 216.027344 59.585938 215.125 C 60.386719 214.226562 60.304688 212.847656 59.402344 212.050781 Z M 59.402344 212.050781 " fill-opacity="1" fill-rule="nonzero"/>
            </g>
        </g>
    </g>
    <g fill="#ffffff" fill-opacity="1">
        <g transform="translate(118.200635, 201.554323)">
            <g>
                <path d="M 21.296875 -15.484375 L 21.296875 -9.96875 C 21.296875 -6.601562 20.472656 -4.019531 18.828125 -2.21875 C 17.191406 -0.425781 14.769531 0.46875 11.5625 0.46875 C 8.363281 0.46875 5.941406 -0.425781 4.296875 -2.21875 C 2.660156 -4.019531 1.84375 -6.601562 1.84375 -9.96875 L 1.84375 -31.5625 C 1.84375 -34.925781 2.660156 -37.503906 4.296875 -39.296875 C 5.941406 -41.097656 8.363281 -42 11.5625 -42 C 14.769531 -42 17.191406 -41.097656 18.828125 -39.296875 C 20.472656 -37.503906 21.296875 -34.925781 21.296875 -31.5625 L 21.296875 -27.53125 L 15.125 -27.53125 L 15.125 -31.984375 C 15.125 -33.484375 14.816406 -34.539062 14.203125 -35.15625 C 13.597656 -35.769531 12.78125 -36.078125 11.75 -36.078125 C 10.71875 -36.078125 9.894531 -35.769531 9.28125 -35.15625 C 8.664062 -34.539062 8.359375 -33.484375 8.359375 -31.984375 L 8.359375 -9.546875 C 8.359375 -8.046875 8.664062 -7 9.28125 -6.40625 C 9.894531 -5.8125 10.71875 -5.515625 11.75 -5.515625 C 12.78125 -5.515625 13.597656 -5.8125 14.203125 -6.40625 C 14.816406 -7 15.125 -8.046875 15.125 -9.546875 L 15.125 -15.484375 Z M 21.296875 -15.484375 "/>
            </g>
        </g>
    </g>
    <g fill="#ffffff" fill-opacity="1">
        <g transform="translate(141.101398, 201.554323)">
            <g>
                <path d="M 16.015625 0 C 15.941406 -0.28125 15.863281 -0.535156 15.78125 -0.765625 C 15.695312 -1.003906 15.625 -1.300781 15.5625 -1.65625 C 15.507812 -2.007812 15.472656 -2.460938 15.453125 -3.015625 C 15.429688 -3.578125 15.421875 -4.273438 15.421875 -5.109375 L 15.421875 -11.625 C 15.421875 -13.5625 15.082031 -14.925781 14.40625 -15.71875 C 13.738281 -16.507812 12.65625 -16.90625 11.15625 -16.90625 L 8.90625 -16.90625 L 8.90625 0 L 2.375 0 L 2.375 -41.53125 L 12.21875 -41.53125 C 15.625 -41.53125 18.085938 -40.738281 19.609375 -39.15625 C 21.128906 -37.570312 21.890625 -35.179688 21.890625 -31.984375 L 21.890625 -28.71875 C 21.890625 -24.445312 20.46875 -21.640625 17.625 -20.296875 C 19.28125 -19.617188 20.414062 -18.519531 21.03125 -17 C 21.644531 -15.476562 21.953125 -13.628906 21.953125 -11.453125 L 21.953125 -5.046875 C 21.953125 -4.015625 21.988281 -3.113281 22.0625 -2.34375 C 22.144531 -1.570312 22.34375 -0.789062 22.65625 0 Z M 8.90625 -35.59375 L 8.90625 -22.84375 L 11.453125 -22.84375 C 12.679688 -22.84375 13.640625 -23.15625 14.328125 -23.78125 C 15.015625 -24.414062 15.359375 -25.566406 15.359375 -27.234375 L 15.359375 -31.328125 C 15.359375 -32.828125 15.09375 -33.910156 14.5625 -34.578125 C 14.03125 -35.253906 13.191406 -35.59375 12.046875 -35.59375 Z M 8.90625 -35.59375 "/>
            </g>
        </g>
    </g>
    <g fill="#ffffff" fill-opacity="1">
        <g transform="translate(164.951414, 201.554323)">
            <g>
                <path d="M 8.90625 -24.03125 L 17.859375 -24.03125 L 17.859375 -18.09375 L 8.90625 -18.09375 L 8.90625 -5.9375 L 20.171875 -5.9375 L 20.171875 0 L 2.375 0 L 2.375 -41.53125 L 20.171875 -41.53125 L 20.171875 -35.59375 L 8.90625 -35.59375 Z M 8.90625 -24.03125 "/>
            </g>
        </g>
    </g>
    <g fill="#ffffff" fill-opacity="1">
        <g transform="translate(186.784259, 201.554323)">
            <g>
                <path d="M 23.5 0 L 16.90625 0 L 15.78125 -7.53125 L 7.765625 -7.53125 L 6.640625 0 L 0.65625 0 L 7.296875 -41.53125 L 16.84375 -41.53125 Z M 8.609375 -13.171875 L 14.890625 -13.171875 L 11.75 -34.171875 Z M 8.609375 -13.171875 "/>
            </g>
        </g>
    </g>
    <g fill="#ffffff" fill-opacity="1">
        <g transform="translate(210.930915, 201.554323)">
            <g>
                <path d="M 0.59375 -41.53125 L 20.765625 -41.53125 L 20.765625 -35.59375 L 13.9375 -35.59375 L 13.9375 0 L 7.421875 0 L 7.421875 -35.59375 L 0.59375 -35.59375 Z M 0.59375 -41.53125 "/>
            </g>
        </g>
    </g>
    <g fill="#ffffff" fill-opacity="1">
        <g transform="translate(232.289142, 201.554323)">
            <g>
                <path d="M 8.359375 -9.546875 C 8.359375 -8.046875 8.664062 -6.988281 9.28125 -6.375 C 9.894531 -5.757812 10.71875 -5.453125 11.75 -5.453125 C 12.78125 -5.453125 13.597656 -5.757812 14.203125 -6.375 C 14.816406 -6.988281 15.125 -8.046875 15.125 -9.546875 L 15.125 -31.984375 C 15.125 -33.484375 14.816406 -34.539062 14.203125 -35.15625 C 13.597656 -35.769531 12.78125 -36.078125 11.75 -36.078125 C 10.71875 -36.078125 9.894531 -35.769531 9.28125 -35.15625 C 8.664062 -34.539062 8.359375 -33.484375 8.359375 -31.984375 Z M 1.84375 -31.5625 C 1.84375 -34.925781 2.691406 -37.503906 4.390625 -39.296875 C 6.085938 -41.097656 8.539062 -42 11.75 -42 C 14.945312 -42 17.394531 -41.097656 19.09375 -39.296875 C 20.800781 -37.503906 21.65625 -34.925781 21.65625 -31.5625 L 21.65625 -9.96875 C 21.65625 -6.601562 20.800781 -4.019531 19.09375 -2.21875 C 17.394531 -0.425781 14.945312 0.46875 11.75 0.46875 C 8.539062 0.46875 6.085938 -0.425781 4.390625 -2.21875 C 2.691406 -4.019531 1.84375 -6.601562 1.84375 -9.96875 Z M 1.84375 -31.5625 "/>
            </g>
        </g>
    </g>
    <g fill="#ffffff" fill-opacity="1">
        <g transform="translate(255.783185, 201.554323)">
            <g>
                <path d="M 16.015625 0 C 15.941406 -0.28125 15.863281 -0.535156 15.78125 -0.765625 C 15.695312 -1.003906 15.625 -1.300781 15.5625 -1.65625 C 15.507812 -2.007812 15.472656 -2.460938 15.453125 -3.015625 C 15.429688 -3.578125 15.421875 -4.273438 15.421875 -5.109375 L 15.421875 -11.625 C 15.421875 -13.5625 15.082031 -14.925781 14.40625 -15.71875 C 13.738281 -16.507812 12.65625 -16.90625 11.15625 -16.90625 L 8.90625 -16.90625 L 8.90625 0 L 2.375 0 L 2.375 -41.53125 L 12.21875 -41.53125 C 15.625 -41.53125 18.085938 -40.738281 19.609375 -39.15625 C 21.128906 -37.570312 21.890625 -35.179688 21.890625 -31.984375 L 21.890625 -28.71875 C 21.890625 -24.445312 20.46875 -21.640625 17.625 -20.296875 C 19.28125 -19.617188 20.414062 -18.519531 21.03125 -17 C 21.644531 -15.476562 21.953125 -13.628906 21.953125 -11.453125 L 21.953125 -5.046875 C 21.953125 -4.015625 21.988281 -3.113281 22.0625 -2.34375 C 22.144531 -1.570312 22.34375 -0.789062 22.65625 0 Z M 8.90625 -35.59375 L 8.90625 -22.84375 L 11.453125 -22.84375 C 12.679688 -22.84375 13.640625 -23.15625 14.328125 -23.78125 C 15.015625 -24.414062 15.359375 -25.566406 15.359375 -27.234375 L 15.359375 -31.328125 C 15.359375 -32.828125 15.09375 -33.910156 14.5625 -34.578125 C 14.03125 -35.253906 13.191406 -35.59375 12.046875 -35.59375 Z M 8.90625 -35.59375 "/>
            </g>
        </g>
    </g>
    <g fill="#c1ff72" fill-opacity="1">
        <g transform="translate(284.339693, 201.554323)">
            <g>
                <path d="M 2.375 -41.53125 L 8.90625 -41.53125 L 8.90625 -5.9375 L 19.640625 -5.9375 L 19.640625 0 L 2.375 0 Z M 2.375 -41.53125 "/>
            </g>
        </g>
    </g>
    <g fill="#c1ff72" fill-opacity="1">
        <g transform="translate(304.570671, 201.554323)">
            <g>
                <path d="M 8.359375 -9.546875 C 8.359375 -8.046875 8.664062 -6.988281 9.28125 -6.375 C 9.894531 -5.757812 10.71875 -5.453125 11.75 -5.453125 C 12.78125 -5.453125 13.597656 -5.757812 14.203125 -6.375 C 14.816406 -6.988281 15.125 -8.046875 15.125 -9.546875 L 15.125 -31.984375 C 15.125 -33.484375 14.816406 -34.539062 14.203125 -35.15625 C 13.597656 -35.769531 12.78125 -36.078125 11.75 -36.078125 C 10.71875 -36.078125 9.894531 -35.769531 9.28125 -35.15625 C 8.664062 -34.539062 8.359375 -33.484375 8.359375 -31.984375 Z M 1.84375 -31.5625 C 1.84375 -34.925781 2.691406 -37.503906 4.390625 -39.296875 C 6.085938 -41.097656 8.539062 -42 11.75 -42 C 14.945312 -42 17.394531 -41.097656 19.09375 -39.296875 C 20.800781 -37.503906 21.65625 -34.925781 21.65625 -31.5625 L 21.65625 -9.96875 C 21.65625 -6.601562 20.800781 -4.019531 19.09375 -2.21875 C 17.394531 -0.425781 14.945312 0.46875 11.75 0.46875 C 8.539062 0.46875 6.085938 -0.425781 4.390625 -2.21875 C 2.691406 -4.019531 1.84375 -6.601562 1.84375 -9.96875 Z M 1.84375 -31.5625 "/>
            </g>
        </g>
    </g>
</svg>